# xmcd CD database file
#
# Track frame offsets:
#	225
#	18132
#	41503
#	62397
#	84358
#	105832
#	131921
#	164071
#	187479
#	216999
#	238433
#	268995
#
# Disc length: 4106 seconds
#
# Revision: 0
# Processed by: cddbd v1.5.1PL0 Copyright (c) Steve Scherf et al.
# Submitted via: CDex 1.51
#
DISCID=b110070c
DTITLE=JugendJazzOrchester NRW - Best Of JJO CD2
DYEAR=2000
DGENRE=Jazz
TTITLE0=They Can't Take That Away From Me
TTITLE1=But Not For Me
TTITLE2=Lush Life
TTITLE3=Isn't It Romantic
TTITLE4=Fasten Seat Belts
TTITLE5=Open Windows
TTITLE6=Back To The Roots
TTITLE7=Nica's Dream
TTITLE8=Kilimandjaro
TTITLE9=El Bandolero
TTITLE10=Kolibri
TTITLE11=Randy's Bag
EXTD=YEAR: 2000
EXTT0=
EXTT1=
EXTT2=
EXTT3=
EXTT4=
EXTT5=
EXTT6=
EXTT7=
EXTT8=
EXTT9=
EXTT10=
EXTT11=
PLAYORDER=
